<?xml version="1.0" encoding="UTF-8"?>
<svg id="Layer_1" xmlns="http://www.w3.org/2000/svg" version="1.1" viewBox="0 0 374 201.8">
  <!-- Generator: Adobe Illustrator 29.1.0, SVG Export Plug-In . SVG Version: 2.1.0 Build 142)  -->
  <defs>
    <style>
      .st0 {
        fill: #a7c957;
      }

      .st1 {
        fill: #f2e8cf;
      }

      .st2 {
        fill: #6a994e;
      }
    </style>
  </defs>
  <path class="st0" d="M101.7,186.2c-47.1,0-85.3-38.2-85.3-85.3S54.5,15.6,101.7,15.6h170.7c47.1,0,85.3,38.2,85.3,85.3s-38.2,85.3-85.3,85.3H101.7Z"/>
  <path class="st2" d="M272.3,196.9H101.7c-52.9,0-96-43.1-96-96S48.8,4.9,101.7,4.9h170.7c52.9,0,96,43.1,96,96s-43.1,96-96,96ZM101.7,26.2c-41.2,0-74.7,33.5-74.7,74.7s33.5,74.7,74.7,74.7h170.7c41.2,0,74.7-33.5,74.7-74.7s-33.5-74.7-74.7-74.7H101.7Z"/>
  <g>
    <path class="st1" d="M187,143.6c-6,0-10.7-4.7-10.7-10.7v-64c0-6,4.7-10.7,10.7-10.7s10.7,4.7,10.7,10.7v64c0,6-4.7,10.7-10.7,10.7Z"/>
    <path class="st1" d="M208.1,126.1l-53.3-32c-5.1-3-6.6-9.6-3.6-14.7s9.6-6.8,14.7-3.6l53.3,32c5.1,3.1,6.7,9.7,3.6,14.7s-9.7,6.7-14.7,3.6Z"/>
    <path class="st1" d="M151.2,122.4c-3-5.1-1.4-11.6,3.6-14.7l53.3-32c5.1-3,11.5-1.3,14.7,3.6s1.5,11.5-3.6,14.7l-53.3,32c-4.9,3-11.5,1.5-14.7-3.6ZM272.3,143.6c-6,0-10.7-4.7-10.7-10.7v-64c0-6,4.7-10.7,10.7-10.7s10.7,4.7,10.7,10.7v64c0,6-4.7,10.7-10.7,10.7Z"/>
    <path class="st1" d="M293.5,126.1l-53.3-32c-5.1-3-6.6-9.6-3.6-14.7s9.6-6.8,14.7-3.6l53.3,32c5.1,3.1,6.7,9.7,3.6,14.7-3.1,5.1-9.7,6.7-14.7,3.6h0Z"/>
    <path class="st1" d="M236.5,122.4c-3-5.1-1.4-11.6,3.6-14.7l53.3-32c5.1-3,11.5-1.3,14.7,3.6,3,5.1,1.5,11.5-3.6,14.7l-53.3,32c-4.9,3-11.5,1.5-14.7-3.6h0ZM101.7,143.6c-6,0-10.7-4.7-10.7-10.7v-64c0-6,4.7-10.7,10.7-10.7s10.7,4.7,10.7,10.7v64c0,6-4.7,10.7-10.7,10.7Z"/>
    <path class="st1" d="M122.8,126.1l-53.3-32c-5.1-3-6.6-9.6-3.6-14.7s9.6-6.8,14.7-3.6l53.3,32c5.1,3.1,6.7,9.7,3.6,14.7-3.1,5.1-9.7,6.7-14.7,3.6h0Z"/>
    <path class="st1" d="M65.8,122.4c-3-5.1-1.4-11.6,3.6-14.7l53.3-32c5.1-3,11.5-1.3,14.7,3.6,3,5.1,1.5,11.5-3.6,14.7l-53.3,32c-4.9,3-11.5,1.5-14.7-3.6h0Z"/>
  </g>
</svg>